<?xml version="1.0" encoding="utf-8" standalone="no"?>
<!DOCTYPE svg PUBLIC "-//W3C//DTD SVG 1.1//EN"
  "http://www.w3.org/Graphics/SVG/1.1/DTD/svg11.dtd">
<svg xmlns:xlink="http://www.w3.org/1999/xlink" width="432pt" height="288pt" viewBox="0 0 432 288" xmlns="http://www.w3.org/2000/svg" version="1.1">
 <metadata>
  <rdf:RDF xmlns:dc="http://purl.org/dc/elements/1.1/" xmlns:cc="http://creativecommons.org/ns#" xmlns:rdf="http://www.w3.org/1999/02/22-rdf-syntax-ns#">
   <cc:Work>
    <dc:type rdf:resource="http://purl.org/dc/dcmitype/StillImage"/>
    <dc:date>2022-04-20T16:18:20.157601</dc:date>
    <dc:format>image/svg+xml</dc:format>
    <dc:creator>
     <cc:Agent>
      <dc:title>Matplotlib v3.5.1, https://matplotlib.org/</dc:title>
     </cc:Agent>
    </dc:creator>
   </cc:Work>
  </rdf:RDF>
 </metadata>
 <defs>
  <style type="text/css">*{stroke-linejoin: round; stroke-linecap: butt}</style>
 </defs>
 <g id="figure_1">
  <g id="patch_1">
   <path d="M 0 288 
L 432 288 
L 432 0 
L 0 0 
L 0 288 
z
" style="fill: none"/>
  </g>
  <g id="axes_1">
   <g id="patch_2">
    <path d="M 54 252 
L 388.8 252 
L 388.8 34.56 
L 54 34.56 
z
" style="fill: #ffffff"/>
   </g>
   <g id="patch_3">
    <path d="M 95.644307 252 
L 107.918708 252 
L 107.918708 251.661616 
L 95.644307 251.661616 
z
" clip-path="url(#p2c6a679d49)" style="fill: url(#hea32e06cbd); stroke: #000000; stroke-linejoin: miter"/>
   </g>
   <g id="patch_4">
    <path d="M 107.918708 252 
L 120.193109 252 
L 120.193109 251.436026 
L 107.918708 251.436026 
z
" clip-path="url(#p2c6a679d49)" style="fill: url(#hea32e06cbd); stroke: #000000; stroke-linejoin: miter"/>
   </g>
   <g id="patch_5">
    <path d="M 120.193109 252 
L 132.46751 252 
L 132.46751 250.533669 
L 120.193109 250.533669 
z
" clip-path="url(#p2c6a679d49)" style="fill: url(#hea32e06cbd); stroke: #000000; stroke-linejoin: miter"/>
   </g>
   <g id="patch_6">
    <path d="M 132.46751 252 
L 144.741911 252 
L 144.741911 247.7138 
L 132.46751 247.7138 
z
" clip-path="url(#p2c6a679d49)" style="fill: url(#hea32e06cbd); stroke: #000000; stroke-linejoin: miter"/>
   </g>
   <g id="patch_7">
    <path d="M 144.741911 252 
L 157.016312 252 
L 157.016312 245.345111 
L 144.741911 245.345111 
z
" clip-path="url(#p2c6a679d49)" style="fill: url(#hea32e06cbd); stroke: #000000; stroke-linejoin: miter"/>
   </g>
   <g id="patch_8">
    <path d="M 157.016312 252 
L 169.290713 252 
L 169.290713 241.058912 
L 157.016312 241.058912 
z
" clip-path="url(#p2c6a679d49)" style="fill: url(#hea32e06cbd); stroke: #000000; stroke-linejoin: miter"/>
   </g>
   <g id="patch_9">
    <path d="M 169.290713 252 
L 181.565114 252 
L 181.565114 229.892234 
L 169.290713 229.892234 
z
" clip-path="url(#p2c6a679d49)" style="fill: url(#hea32e06cbd); stroke: #000000; stroke-linejoin: miter"/>
   </g>
   <g id="patch_10">
    <path d="M 181.565114 252 
L 193.839514 252 
L 193.839514 219.176735 
L 181.565114 219.176735 
z
" clip-path="url(#p2c6a679d49)" style="fill: url(#hea32e06cbd); stroke: #000000; stroke-linejoin: miter"/>
   </g>
   <g id="patch_11">
    <path d="M 193.839514 252 
L 206.113915 252 
L 206.113915 187.819802 
L 193.839514 187.819802 
z
" clip-path="url(#p2c6a679d49)" style="fill: url(#hea32e06cbd); stroke: #000000; stroke-linejoin: miter"/>
   </g>
   <g id="patch_12">
    <path d="M 206.113915 252 
L 218.388316 252 
L 218.388316 149.695185 
L 206.113915 149.695185 
z
" clip-path="url(#p2c6a679d49)" style="fill: url(#hea32e06cbd); stroke: #000000; stroke-linejoin: miter"/>
   </g>
   <g id="patch_13">
    <path d="M 218.388316 252 
L 230.662717 252 
L 230.662717 110.668211 
L 218.388316 110.668211 
z
" clip-path="url(#p2c6a679d49)" style="fill: url(#hea32e06cbd); stroke: #000000; stroke-linejoin: miter"/>
   </g>
   <g id="patch_14">
    <path d="M 230.662717 252 
L 242.937118 252 
L 242.937118 61.376916 
L 230.662717 61.376916 
z
" clip-path="url(#p2c6a679d49)" style="fill: url(#hea32e06cbd); stroke: #000000; stroke-linejoin: miter"/>
   </g>
   <g id="patch_15">
    <path d="M 242.937118 252 
L 255.211519 252 
L 255.211519 48.969497 
L 242.937118 48.969497 
z
" clip-path="url(#p2c6a679d49)" style="fill: url(#hea32e06cbd); stroke: #000000; stroke-linejoin: miter"/>
   </g>
   <g id="patch_16">
    <path d="M 255.211519 252 
L 267.48592 252 
L 267.48592 90.816339 
L 255.211519 90.816339 
z
" clip-path="url(#p2c6a679d49)" style="fill: url(#hea32e06cbd); stroke: #000000; stroke-linejoin: miter"/>
   </g>
   <g id="patch_17">
    <path d="M 267.48592 252 
L 279.760321 252 
L 279.760321 146.311344 
L 267.48592 146.311344 
z
" clip-path="url(#p2c6a679d49)" style="fill: url(#hea32e06cbd); stroke: #000000; stroke-linejoin: miter"/>
   </g>
   <g id="patch_18">
    <path d="M 279.760321 252 
L 292.034722 252 
L 292.034722 201.580758 
L 279.760321 201.580758 
z
" clip-path="url(#p2c6a679d49)" style="fill: url(#hea32e06cbd); stroke: #000000; stroke-linejoin: miter"/>
   </g>
   <g id="patch_19">
    <path d="M 292.034722 252 
L 304.309123 252 
L 304.309123 231.69695 
L 292.034722 231.69695 
z
" clip-path="url(#p2c6a679d49)" style="fill: url(#hea32e06cbd); stroke: #000000; stroke-linejoin: miter"/>
   </g>
   <g id="patch_20">
    <path d="M 304.309123 252 
L 316.583524 252 
L 316.583524 244.329959 
L 304.309123 244.329959 
z
" clip-path="url(#p2c6a679d49)" style="fill: url(#hea32e06cbd); stroke: #000000; stroke-linejoin: miter"/>
   </g>
   <g id="patch_21">
    <path d="M 316.583524 252 
L 328.857925 252 
L 328.857925 250.308079 
L 316.583524 250.308079 
z
" clip-path="url(#p2c6a679d49)" style="fill: url(#hea32e06cbd); stroke: #000000; stroke-linejoin: miter"/>
   </g>
   <g id="patch_22">
    <path d="M 328.857925 252 
L 341.132326 252 
L 341.132326 251.661616 
L 328.857925 251.661616 
z
" clip-path="url(#p2c6a679d49)" style="fill: url(#hea32e06cbd); stroke: #000000; stroke-linejoin: miter"/>
   </g>
   <g id="matplotlib.axis_1">
    <g id="xtick_1">
     <g id="line2d_1">
      <defs>
       <path id="mf37c93a41c" d="M 0 0 
L 0 3.5 
" style="stroke: #000000; stroke-width: 0.8"/>
      </defs>
      <g>
       <use xlink:href="#mf37c93a41c" x="69.218182" y="252" style="stroke: #000000; stroke-width: 0.8"/>
      </g>
     </g>
     <g id="text_1">
      <!-- 50 -->
      <g transform="translate(64.218182 266.148438)scale(0.1 -0.1)">
       <defs>
        <path id="SimSun-35" d="M 1725 2850 
Q 2200 2850 2500 2487 
Q 2800 2125 2800 1525 
Q 2800 850 2487 450 
Q 2175 50 1525 50 
Q 1075 50 725 312 
Q 375 575 375 950 
Q 375 1100 462 1212 
Q 550 1325 700 1325 
Q 850 1325 900 1225 
Q 950 1125 950 1050 
Q 950 900 875 825 
Q 800 725 800 625 
Q 800 425 1037 325 
Q 1275 225 1550 225 
Q 1950 225 2162 550 
Q 2375 875 2375 1475 
Q 2375 1975 2187 2287 
Q 2000 2600 1625 2600 
Q 1350 2600 1150 2500 
Q 950 2400 775 2075 
L 550 2100 
L 675 4375 
L 2725 4375 
L 2650 4000 
L 850 4000 
L 750 2350 
Q 1000 2700 1237 2775 
Q 1475 2850 1725 2850 
z
" transform="scale(0.015625)"/>
        <path id="SimSun-30" d="M 1600 4225 
Q 1250 4225 1012 3687 
Q 775 3150 775 2250 
Q 775 1300 1012 775 
Q 1250 250 1600 250 
Q 1975 250 2187 775 
Q 2400 1300 2400 2250 
Q 2400 3150 2200 3687 
Q 2000 4225 1600 4225 
z
M 1600 50 
Q 1050 50 675 625 
Q 300 1200 300 2250 
Q 300 3225 662 3825 
Q 1025 4425 1600 4425 
Q 2150 4425 2512 3850 
Q 2875 3275 2875 2250 
Q 2875 1225 2512 637 
Q 2150 50 1600 50 
z
" transform="scale(0.015625)"/>
       </defs>
       <use xlink:href="#SimSun-35"/>
       <use xlink:href="#SimSun-30" x="50"/>
      </g>
     </g>
    </g>
    <g id="xtick_2">
     <g id="line2d_2">
      <g>
       <use xlink:href="#mf37c93a41c" x="119.945455" y="252" style="stroke: #000000; stroke-width: 0.8"/>
      </g>
     </g>
     <g id="text_2">
      <!-- 55 -->
      <g transform="translate(114.945455 266.148438)scale(0.1 -0.1)">
       <use xlink:href="#SimSun-35"/>
       <use xlink:href="#SimSun-35" x="50"/>
      </g>
     </g>
    </g>
    <g id="xtick_3">
     <g id="line2d_3">
      <g>
       <use xlink:href="#mf37c93a41c" x="170.672727" y="252" style="stroke: #000000; stroke-width: 0.8"/>
      </g>
     </g>
     <g id="text_3">
      <!-- 60 -->
      <g transform="translate(165.672727 266.148438)scale(0.1 -0.1)">
       <defs>
        <path id="SimSun-36" d="M 775 1800 
Q 775 1050 1037 637 
Q 1300 225 1675 225 
Q 2050 225 2250 500 
Q 2450 775 2450 1525 
Q 2450 2025 2237 2300 
Q 2025 2575 1725 2575 
Q 1450 2575 1212 2412 
Q 975 2250 775 1800 
z
M 1750 2825 
Q 2350 2825 2612 2425 
Q 2875 2025 2875 1525 
Q 2875 775 2512 412 
Q 2150 50 1675 50 
Q 1000 50 650 562 
Q 300 1075 300 2050 
Q 300 3200 725 3812 
Q 1150 4425 1875 4425 
Q 2225 4425 2437 4225 
Q 2650 4025 2650 3875 
Q 2650 3725 2587 3650 
Q 2525 3575 2375 3575 
Q 2250 3575 2187 3637 
Q 2125 3700 2125 3825 
Q 2125 3875 2150 3925 
Q 2150 3975 2150 4025 
Q 2150 4125 2075 4187 
Q 2000 4250 1800 4250 
Q 1375 4250 1075 3862 
Q 775 3475 775 2175 
Q 925 2500 1187 2662 
Q 1450 2825 1750 2825 
z
" transform="scale(0.015625)"/>
       </defs>
       <use xlink:href="#SimSun-36"/>
       <use xlink:href="#SimSun-30" x="50"/>
      </g>
     </g>
    </g>
    <g id="xtick_4">
     <g id="line2d_4">
      <g>
       <use xlink:href="#mf37c93a41c" x="221.4" y="252" style="stroke: #000000; stroke-width: 0.8"/>
      </g>
     </g>
     <g id="text_4">
      <!-- 65 -->
      <g transform="translate(216.4 266.148438)scale(0.1 -0.1)">
       <use xlink:href="#SimSun-36"/>
       <use xlink:href="#SimSun-35" x="50"/>
      </g>
     </g>
    </g>
    <g id="xtick_5">
     <g id="line2d_5">
      <g>
       <use xlink:href="#mf37c93a41c" x="272.127273" y="252" style="stroke: #000000; stroke-width: 0.8"/>
      </g>
     </g>
     <g id="text_5">
      <!-- 70 -->
      <g transform="translate(267.127273 266.148438)scale(0.1 -0.1)">
       <defs>
        <path id="SimSun-37" d="M 2825 4200 
Q 2300 3350 1987 2537 
Q 1675 1725 1675 1125 
Q 1675 1025 1700 850 
Q 1700 650 1700 400 
Q 1700 200 1637 125 
Q 1575 50 1425 50 
Q 1300 50 1212 137 
Q 1125 225 1125 450 
Q 1125 925 1337 1625 
Q 1550 2325 2475 4000 
L 1225 4000 
Q 950 4000 787 3825 
Q 625 3650 550 3300 
L 400 3325 
L 575 4375 
L 2825 4375 
L 2825 4200 
z
" transform="scale(0.015625)"/>
       </defs>
       <use xlink:href="#SimSun-37"/>
       <use xlink:href="#SimSun-30" x="50"/>
      </g>
     </g>
    </g>
    <g id="xtick_6">
     <g id="line2d_6">
      <g>
       <use xlink:href="#mf37c93a41c" x="322.854545" y="252" style="stroke: #000000; stroke-width: 0.8"/>
      </g>
     </g>
     <g id="text_6">
      <!-- 75 -->
      <g transform="translate(317.854545 266.148438)scale(0.1 -0.1)">
       <use xlink:href="#SimSun-37"/>
       <use xlink:href="#SimSun-35" x="50"/>
      </g>
     </g>
    </g>
    <g id="xtick_7">
     <g id="line2d_7">
      <g>
       <use xlink:href="#mf37c93a41c" x="373.581818" y="252" style="stroke: #000000; stroke-width: 0.8"/>
      </g>
     </g>
     <g id="text_7">
      <!-- 80 -->
      <g transform="translate(368.581818 266.148438)scale(0.1 -0.1)">
       <defs>
        <path id="SimSun-38" d="M 625 1125 
Q 625 725 887 475 
Q 1150 225 1550 225 
Q 2025 225 2237 475 
Q 2450 725 2450 1100 
Q 2450 1425 2150 1725 
Q 1850 2025 1250 2275 
Q 950 2075 787 1775 
Q 625 1475 625 1125 
z
M 2825 1175 
Q 2825 700 2475 375 
Q 2125 50 1550 50 
Q 1025 50 650 375 
Q 275 700 275 1125 
Q 275 1550 487 1850 
Q 700 2150 1100 2375 
Q 750 2550 562 2812 
Q 375 3075 375 3400 
Q 375 3825 700 4125 
Q 1025 4425 1600 4425 
Q 2125 4425 2450 4125 
Q 2775 3825 2775 3400 
Q 2775 3100 2587 2837 
Q 2400 2575 2000 2375 
Q 2425 2125 2625 1825 
Q 2825 1525 2825 1175 
z
M 2425 3375 
Q 2425 3725 2225 3987 
Q 2025 4250 1600 4250 
Q 1125 4250 925 4000 
Q 725 3750 725 3475 
Q 725 3200 1012 2937 
Q 1300 2675 1825 2475 
Q 2125 2625 2275 2850 
Q 2425 3075 2425 3375 
z
" transform="scale(0.015625)"/>
       </defs>
       <use xlink:href="#SimSun-38"/>
       <use xlink:href="#SimSun-30" x="50"/>
      </g>
     </g>
    </g>
    <g id="text_8">
     <!-- displacement/mm -->
     <g transform="translate(183.9 279.210938)scale(0.1 -0.1)">
      <defs>
       <path id="SimSun-64" d="M 2300 2350 
Q 2175 2550 1975 2637 
Q 1775 2725 1575 2725 
Q 1200 2725 987 2375 
Q 775 2025 775 1450 
Q 775 850 975 562 
Q 1175 275 1550 275 
Q 1825 275 2012 450 
Q 2200 625 2300 975 
L 2300 2350 
z
M 1475 75 
Q 1025 75 700 437 
Q 375 800 375 1500 
Q 375 2150 725 2537 
Q 1075 2925 1550 2925 
Q 1750 2925 1962 2837 
Q 2175 2750 2300 2575 
L 2300 3925 
Q 2300 4075 2250 4150 
Q 2200 4225 2075 4225 
L 1875 4225 
L 1875 4375 
L 2150 4375 
Q 2275 4375 2400 4425 
Q 2525 4475 2650 4575 
L 2650 625 
Q 2650 500 2700 450 
Q 2750 400 2850 400 
L 3025 400 
L 3025 250 
L 2875 250 
Q 2775 250 2637 212 
Q 2500 175 2350 100 
L 2300 100 
L 2300 575 
Q 2175 350 1962 212 
Q 1750 75 1475 75 
z
" transform="scale(0.015625)"/>
       <path id="SimSun-69" d="M 1425 2525 
Q 1425 2625 1375 2687 
Q 1325 2750 1200 2750 
L 675 2750 
L 675 2900 
L 925 2900 
Q 1150 2900 1350 2937 
Q 1550 2975 1725 3075 
L 1775 3075 
L 1775 450 
Q 1775 350 1837 300 
Q 1900 250 2000 250 
L 2525 250 
L 2525 100 
L 675 100 
L 675 250 
L 1200 250 
Q 1325 250 1375 300 
Q 1425 350 1425 450 
L 1425 2525 
z
M 1725 3025 
L 1725 3025 
z
M 1625 4425 
Q 1750 4425 1850 4337 
Q 1950 4250 1950 4125 
Q 1950 4000 1850 3900 
Q 1750 3800 1625 3800 
Q 1500 3800 1400 3900 
Q 1300 4000 1300 4125 
Q 1300 4250 1400 4337 
Q 1500 4425 1625 4425 
z
" transform="scale(0.015625)"/>
       <path id="SimSun-73" d="M 625 2175 
Q 625 2550 912 2750 
Q 1200 2950 1600 2950 
Q 1825 2950 2025 2900 
Q 2225 2825 2300 2825 
Q 2375 2825 2425 2850 
Q 2475 2875 2550 2950 
L 2650 2125 
L 2500 2100 
Q 2400 2425 2162 2612 
Q 1925 2800 1625 2800 
Q 1300 2800 1112 2675 
Q 925 2550 925 2325 
Q 925 2125 1012 2012 
Q 1100 1900 1325 1850 
Q 1500 1775 1775 1700 
Q 2025 1600 2250 1500 
Q 2450 1400 2587 1237 
Q 2725 1075 2725 875 
Q 2725 500 2462 287 
Q 2200 75 1700 75 
Q 1375 75 1225 150 
Q 1050 200 950 200 
Q 875 200 787 162 
Q 700 125 600 75 
L 525 1000 
L 675 1025 
Q 750 625 1000 425 
Q 1250 225 1700 225 
Q 2050 225 2237 350 
Q 2425 475 2425 725 
Q 2425 900 2325 1012 
Q 2225 1125 2125 1175 
Q 1875 1275 1575 1400 
Q 1275 1500 1050 1600 
Q 825 1700 725 1850 
Q 625 2000 625 2175 
z
" transform="scale(0.015625)"/>
       <path id="SimSun-70" d="M 1150 -675 
L 1325 -675 
L 1325 -825 
L 175 -825 
L 175 -675 
L 325 -675 
Q 450 -675 500 -625 
Q 550 -575 550 -450 
L 550 2500 
Q 550 2600 500 2662 
Q 450 2725 325 2725 
L 175 2725 
L 175 2875 
L 400 2875 
Q 525 2875 637 2900 
Q 750 2925 850 3000 
L 900 3000 
L 900 2425 
Q 1075 2675 1287 2800 
Q 1500 2925 1750 2925 
Q 2250 2925 2575 2587 
Q 2900 2250 2900 1525 
Q 2900 825 2550 450 
Q 2200 75 1725 75 
Q 1450 75 1262 162 
Q 1075 250 900 425 
L 900 -450 
Q 900 -575 975 -625 
Q 1050 -675 1150 -675 
z
M 900 750 
Q 1025 500 1212 375 
Q 1400 250 1650 250 
Q 2000 250 2250 562 
Q 2500 875 2500 1525 
Q 2500 2125 2312 2425 
Q 2125 2725 1750 2725 
Q 1525 2725 1300 2587 
Q 1075 2450 900 2150 
L 900 750 
z
" transform="scale(0.015625)"/>
       <path id="SimSun-6c" d="M 925 4375 
Q 1150 4375 1350 4425 
Q 1550 4475 1725 4575 
L 1775 4575 
L 1775 450 
Q 1775 350 1837 300 
Q 1900 250 2000 250 
L 2575 250 
L 2575 100 
L 625 100 
L 625 250 
L 1200 250 
Q 1325 250 1375 300 
Q 1425 350 1425 450 
L 1425 4025 
Q 1425 4125 1375 4175 
Q 1325 4225 1200 4225 
L 650 4225 
L 650 4375 
L 925 4375 
z
" transform="scale(0.015625)"/>
       <path id="SimSun-61" d="M 1225 75 
Q 775 75 525 287 
Q 275 500 275 775 
Q 275 1225 662 1512 
Q 1050 1800 2200 1925 
L 2200 2225 
Q 2200 2475 2087 2637 
Q 1975 2800 1575 2800 
Q 1150 2800 975 2662 
Q 800 2525 850 2375 
Q 875 2325 875 2275 
Q 875 2225 837 2150 
Q 800 2075 650 2075 
Q 550 2075 487 2137 
Q 425 2200 425 2325 
Q 425 2550 750 2750 
Q 1075 2950 1550 2950 
Q 2050 2950 2300 2762 
Q 2550 2575 2550 2225 
L 2550 575 
Q 2550 375 2587 337 
Q 2625 300 2725 300 
Q 2850 300 2900 412 
Q 2950 525 2950 725 
L 3075 725 
Q 3075 375 2950 237 
Q 2825 100 2625 100 
Q 2450 100 2350 175 
Q 2250 250 2200 425 
Q 1950 250 1737 162 
Q 1525 75 1225 75 
z
M 700 850 
Q 700 625 837 437 
Q 975 250 1275 250 
Q 1500 250 1725 337 
Q 1950 425 2200 600 
L 2200 1775 
Q 1350 1675 1025 1437 
Q 700 1200 700 850 
z
" transform="scale(0.015625)"/>
       <path id="SimSun-63" d="M 2150 2225 
Q 2150 2300 2175 2325 
Q 2175 2350 2200 2425 
Q 2225 2525 2100 2662 
Q 1975 2800 1675 2800 
Q 1300 2800 1037 2437 
Q 775 2075 775 1475 
Q 775 925 1000 587 
Q 1225 250 1750 250 
Q 2100 250 2337 475 
Q 2575 700 2675 1000 
L 2800 950 
Q 2700 575 2425 312 
Q 2150 50 1675 50 
Q 1075 50 725 425 
Q 375 800 375 1500 
Q 375 2125 750 2537 
Q 1125 2950 1725 2950 
Q 2150 2950 2387 2725 
Q 2625 2500 2625 2275 
Q 2625 2125 2562 2062 
Q 2500 2000 2375 2000 
Q 2275 2000 2212 2062 
Q 2150 2125 2150 2225 
z
" transform="scale(0.015625)"/>
       <path id="SimSun-65" d="M 2400 1650 
Q 2425 2200 2212 2487 
Q 2000 2775 1650 2775 
Q 1275 2775 1037 2475 
Q 800 2175 800 1650 
L 2400 1650 
z
M 800 1500 
Q 800 825 1062 537 
Q 1325 250 1750 250 
Q 2075 250 2300 437 
Q 2525 625 2625 900 
L 2750 850 
Q 2675 575 2412 312 
Q 2150 50 1700 50 
Q 1125 50 762 425 
Q 400 800 400 1500 
Q 400 2125 762 2537 
Q 1125 2950 1650 2950 
Q 2125 2950 2475 2625 
Q 2825 2300 2825 1500 
L 800 1500 
z
" transform="scale(0.015625)"/>
       <path id="SimSun-6d" d="M 175 2900 
Q 300 2900 425 2925 
Q 550 2950 625 3000 
L 675 3000 
L 675 2575 
Q 800 2775 950 2862 
Q 1100 2950 1275 2950 
Q 1500 2950 1625 2862 
Q 1750 2775 1775 2575 
Q 1900 2775 2062 2862 
Q 2225 2950 2400 2950 
Q 2700 2950 2812 2775 
Q 2925 2600 2925 2325 
L 2925 425 
Q 2925 325 2975 287 
Q 3025 250 3125 250 
L 3175 250 
L 3175 100 
L 2325 100 
L 2325 250 
L 2375 250 
Q 2475 250 2525 287 
Q 2575 325 2575 425 
L 2575 2300 
Q 2575 2575 2512 2662 
Q 2450 2750 2325 2750 
Q 2150 2750 2012 2625 
Q 1875 2500 1800 2275 
L 1800 425 
Q 1800 325 1850 287 
Q 1900 250 2000 250 
L 2050 250 
L 2050 100 
L 1200 100 
L 1200 250 
L 1250 250 
Q 1350 250 1400 287 
Q 1450 325 1450 425 
L 1450 2300 
Q 1450 2525 1400 2637 
Q 1350 2750 1200 2750 
Q 1025 2750 887 2625 
Q 750 2500 675 2250 
L 675 425 
Q 675 325 725 287 
Q 775 250 875 250 
L 925 250 
L 925 100 
L 75 100 
L 75 250 
L 125 250 
Q 225 250 275 287 
Q 325 325 325 425 
L 325 2600 
Q 325 2675 300 2712 
Q 275 2750 200 2750 
L 100 2750 
L 100 2900 
L 175 2900 
z
" transform="scale(0.015625)"/>
       <path id="SimSun-6e" d="M 200 100 
L 200 250 
L 325 250 
Q 450 250 500 300 
Q 550 350 550 450 
L 550 2600 
Q 550 2675 525 2712 
Q 500 2750 425 2750 
L 225 2750 
L 225 2900 
L 400 2900 
Q 525 2900 637 2925 
Q 750 2950 850 3025 
L 900 3025 
L 900 2450 
Q 1125 2700 1350 2825 
Q 1575 2950 1825 2950 
Q 2250 2950 2450 2725 
Q 2650 2500 2650 2050 
L 2650 450 
Q 2650 350 2712 300 
Q 2775 250 2875 250 
L 3000 250 
L 3000 100 
L 1950 100 
L 1950 250 
L 2075 250 
Q 2200 250 2250 300 
Q 2300 350 2300 450 
L 2300 2125 
Q 2300 2425 2175 2587 
Q 2050 2750 1800 2750 
Q 1575 2750 1337 2600 
Q 1100 2450 900 2175 
L 900 450 
Q 900 350 962 300 
Q 1025 250 1125 250 
L 1250 250 
L 1250 100 
L 200 100 
z
" transform="scale(0.015625)"/>
       <path id="SimSun-74" d="M 1500 900 
Q 1500 550 1625 425 
Q 1750 300 2000 300 
Q 2250 300 2400 462 
Q 2550 625 2600 925 
L 2725 875 
Q 2675 525 2462 300 
Q 2250 75 1900 75 
Q 1525 75 1337 300 
Q 1150 525 1150 1000 
L 1150 2750 
L 400 2750 
L 400 2900 
L 600 2900 
Q 900 2900 1087 3087 
Q 1275 3275 1325 3675 
L 1350 3875 
L 1500 3875 
L 1500 2900 
L 2500 2900 
L 2500 2750 
L 1500 2750 
L 1500 900 
z
" transform="scale(0.015625)"/>
       <path id="SimSun-2f" d="M 400 -475 
L 225 -375 
L 2775 4975 
L 2950 4875 
L 400 -475 
z
" transform="scale(0.015625)"/>
      </defs>
      <use xlink:href="#SimSun-64"/>
      <use xlink:href="#SimSun-69" x="50"/>
      <use xlink:href="#SimSun-73" x="100"/>
      <use xlink:href="#SimSun-70" x="150"/>
      <use xlink:href="#SimSun-6c" x="200"/>
      <use xlink:href="#SimSun-61" x="250"/>
      <use xlink:href="#SimSun-63" x="300"/>
      <use xlink:href="#SimSun-65" x="350"/>
      <use xlink:href="#SimSun-6d" x="400"/>
      <use xlink:href="#SimSun-65" x="450"/>
      <use xlink:href="#SimSun-6e" x="500"/>
      <use xlink:href="#SimSun-74" x="550"/>
      <use xlink:href="#SimSun-2f" x="600"/>
      <use xlink:href="#SimSun-6d" x="650"/>
      <use xlink:href="#SimSun-6d" x="700"/>
     </g>
    </g>
   </g>
   <g id="matplotlib.axis_2">
    <g id="ytick_1">
     <g id="line2d_8">
      <defs>
       <path id="m3e5a644107" d="M 0 0 
L -3.5 0 
" style="stroke: #000000; stroke-width: 0.8"/>
      </defs>
      <g>
       <use xlink:href="#m3e5a644107" x="54" y="252" style="stroke: #000000; stroke-width: 0.8"/>
      </g>
     </g>
     <g id="text_9">
      <!-- 0.00 -->
      <g transform="translate(27 255.574219)scale(0.1 -0.1)">
       <defs>
        <path id="SimSun-2e" d="M 800 25 
Q 650 25 537 125 
Q 425 225 425 400 
Q 425 575 537 675 
Q 650 775 800 775 
Q 950 775 1062 662 
Q 1175 550 1175 400 
Q 1175 225 1062 125 
Q 950 25 800 25 
z
" transform="scale(0.015625)"/>
       </defs>
       <use xlink:href="#SimSun-30"/>
       <use xlink:href="#SimSun-2e" x="50"/>
       <use xlink:href="#SimSun-30" x="100"/>
       <use xlink:href="#SimSun-30" x="150"/>
      </g>
     </g>
    </g>
    <g id="ytick_2">
     <g id="line2d_9">
      <g>
       <use xlink:href="#m3e5a644107" x="54" y="224.707232" style="stroke: #000000; stroke-width: 0.8"/>
      </g>
     </g>
     <g id="text_10">
      <!-- 0.02 -->
      <g transform="translate(27 228.281451)scale(0.1 -0.1)">
       <defs>
        <path id="SimSun-32" d="M 2325 3325 
Q 2325 3775 2125 4012 
Q 1925 4250 1525 4250 
Q 1225 4250 1012 4087 
Q 800 3925 800 3675 
Q 800 3525 900 3425 
Q 975 3325 975 3225 
Q 975 3100 912 3037 
Q 850 2975 725 2975 
Q 575 2975 487 3062 
Q 400 3150 400 3350 
Q 400 3875 775 4150 
Q 1150 4425 1575 4425 
Q 2175 4425 2462 4125 
Q 2750 3825 2750 3375 
Q 2750 3075 2612 2775 
Q 2475 2475 2175 2200 
Q 1450 1500 1062 1062 
Q 675 625 600 475 
L 2075 475 
Q 2300 475 2450 650 
Q 2600 825 2650 1175 
L 2800 1175 
L 2650 100 
L 325 100 
L 325 425 
Q 450 650 737 1000 
Q 1025 1350 1500 1825 
Q 1925 2250 2125 2625 
Q 2325 3000 2325 3325 
z
" transform="scale(0.015625)"/>
       </defs>
       <use xlink:href="#SimSun-30"/>
       <use xlink:href="#SimSun-2e" x="50"/>
       <use xlink:href="#SimSun-30" x="100"/>
       <use xlink:href="#SimSun-32" x="150"/>
      </g>
     </g>
    </g>
    <g id="ytick_3">
     <g id="line2d_10">
      <g>
       <use xlink:href="#m3e5a644107" x="54" y="197.414465" style="stroke: #000000; stroke-width: 0.8"/>
      </g>
     </g>
     <g id="text_11">
      <!-- 0.04 -->
      <g transform="translate(27 200.988683)scale(0.1 -0.1)">
       <defs>
        <path id="SimSun-34" d="M 2300 575 
Q 2300 400 2400 325 
Q 2500 250 2675 250 
L 2900 250 
L 2900 100 
L 1250 100 
L 1250 250 
L 1525 250 
Q 1725 250 1812 325 
Q 1900 400 1900 575 
L 1900 1400 
L 225 1400 
L 225 1525 
L 2050 4425 
L 2300 4425 
L 2300 1550 
L 2975 1550 
L 2975 1400 
L 2300 1400 
L 2300 575 
z
M 1875 3800 
L 450 1550 
L 1900 1550 
L 1900 3800 
L 1875 3800 
z
" transform="scale(0.015625)"/>
       </defs>
       <use xlink:href="#SimSun-30"/>
       <use xlink:href="#SimSun-2e" x="50"/>
       <use xlink:href="#SimSun-30" x="100"/>
       <use xlink:href="#SimSun-34" x="150"/>
      </g>
     </g>
    </g>
    <g id="ytick_4">
     <g id="line2d_11">
      <g>
       <use xlink:href="#m3e5a644107" x="54" y="170.121697" style="stroke: #000000; stroke-width: 0.8"/>
      </g>
     </g>
     <g id="text_12">
      <!-- 0.06 -->
      <g transform="translate(27 173.695916)scale(0.1 -0.1)">
       <use xlink:href="#SimSun-30"/>
       <use xlink:href="#SimSun-2e" x="50"/>
       <use xlink:href="#SimSun-30" x="100"/>
       <use xlink:href="#SimSun-36" x="150"/>
      </g>
     </g>
    </g>
    <g id="ytick_5">
     <g id="line2d_12">
      <g>
       <use xlink:href="#m3e5a644107" x="54" y="142.828929" style="stroke: #000000; stroke-width: 0.8"/>
      </g>
     </g>
     <g id="text_13">
      <!-- 0.08 -->
      <g transform="translate(27 146.403148)scale(0.1 -0.1)">
       <use xlink:href="#SimSun-30"/>
       <use xlink:href="#SimSun-2e" x="50"/>
       <use xlink:href="#SimSun-30" x="100"/>
       <use xlink:href="#SimSun-38" x="150"/>
      </g>
     </g>
    </g>
    <g id="ytick_6">
     <g id="line2d_13">
      <g>
       <use xlink:href="#m3e5a644107" x="54" y="115.536162" style="stroke: #000000; stroke-width: 0.8"/>
      </g>
     </g>
     <g id="text_14">
      <!-- 0.10 -->
      <g transform="translate(27 119.110381)scale(0.1 -0.1)">
       <defs>
        <path id="SimSun-31" d="M 1825 4450 
L 1825 650 
Q 1825 450 1950 350 
Q 2075 250 2300 250 
L 2550 250 
L 2550 100 
L 725 100 
L 725 250 
L 950 250 
Q 1200 250 1312 350 
Q 1425 450 1425 650 
L 1425 3675 
Q 1425 3775 1362 3837 
Q 1300 3900 1175 3900 
L 725 3900 
L 725 4050 
L 950 4050 
Q 1250 4050 1437 4150 
Q 1625 4250 1725 4450 
L 1825 4450 
z
" transform="scale(0.015625)"/>
       </defs>
       <use xlink:href="#SimSun-30"/>
       <use xlink:href="#SimSun-2e" x="50"/>
       <use xlink:href="#SimSun-31" x="100"/>
       <use xlink:href="#SimSun-30" x="150"/>
      </g>
     </g>
    </g>
    <g id="ytick_7">
     <g id="line2d_14">
      <g>
       <use xlink:href="#m3e5a644107" x="54" y="88.243394" style="stroke: #000000; stroke-width: 0.8"/>
      </g>
     </g>
     <g id="text_15">
      <!-- 0.12 -->
      <g transform="translate(27 91.817613)scale(0.1 -0.1)">
       <use xlink:href="#SimSun-30"/>
       <use xlink:href="#SimSun-2e" x="50"/>
       <use xlink:href="#SimSun-31" x="100"/>
       <use xlink:href="#SimSun-32" x="150"/>
      </g>
     </g>
    </g>
    <g id="ytick_8">
     <g id="line2d_15">
      <g>
       <use xlink:href="#m3e5a644107" x="54" y="60.950626" style="stroke: #000000; stroke-width: 0.8"/>
      </g>
     </g>
     <g id="text_16">
      <!-- 0.14 -->
      <g transform="translate(27 64.524845)scale(0.1 -0.1)">
       <use xlink:href="#SimSun-30"/>
       <use xlink:href="#SimSun-2e" x="50"/>
       <use xlink:href="#SimSun-31" x="100"/>
       <use xlink:href="#SimSun-34" x="150"/>
      </g>
     </g>
    </g>
   </g>
   <g id="line2d_16">
    <path d="M 69.218182 251.971459 
L 72.292562 251.965695 
L 75.366942 251.958767 
L 78.441322 251.950439 
L 81.515702 251.94043 
L 84.590083 251.9284 
L 87.664463 251.913941 
L 90.738843 251.896563 
L 93.813223 251.875677 
L 96.887603 251.850574 
L 99.961983 251.820406 
L 103.036364 251.78415 
L 106.110744 251.740579 
L 109.185124 251.688219 
L 112.259504 251.625301 
L 115.333884 251.549701 
L 118.408264 251.458866 
L 121.482645 251.349738 
L 124.557025 251.218643 
L 127.631405 251.06118 
L 130.705785 250.87207 
L 133.780165 250.644993 
L 136.854545 250.37238 
L 139.928926 250.045182 
L 143.003306 249.652584 
L 146.077686 249.181679 
L 149.152066 248.61709 
L 152.226446 247.940523 
L 155.300826 247.130266 
L 158.375207 246.160614 
L 161.449587 245.001236 
L 164.523967 243.616479 
L 167.598347 241.964631 
L 170.672727 239.997183 
L 173.747107 237.658123 
L 176.821488 234.883355 
L 179.895868 231.600365 
L 182.970248 227.728281 
L 186.044628 223.178578 
L 189.119008 217.856717 
L 192.193388 211.665096 
L 195.267769 204.50776 
L 198.342149 196.297341 
L 201.416529 186.964676 
L 204.490909 176.471388 
L 207.565289 164.825354 
L 210.639669 152.098427 
L 213.71405 138.44487 
L 216.78843 124.117906 
L 219.86281 109.480607 
L 222.93719 95.006586 
L 226.01157 81.265912 
L 229.08595 68.89311 
L 232.160331 58.537117 
L 235.234711 50.79746 
L 238.309091 46.155678 
L 241.383471 44.914286 
L 244.457851 47.155927 
L 247.532231 52.7319 
L 250.606612 61.282712 
L 253.680992 72.285915 
L 256.755372 85.120675 
L 259.829752 99.136141 
L 262.904132 113.71201 
L 265.978512 128.303598 
L 269.052893 142.468485 
L 272.127273 155.875919 
L 275.201653 168.302693 
L 278.276033 179.620176 
L 281.350413 189.776883 
L 284.424793 198.780029 
L 287.499174 206.678345 
L 290.573554 213.547408 
L 293.647934 219.477926 
L 296.722314 224.566935 
L 299.796694 228.91155 
L 302.871074 232.60481 
L 305.945455 235.733153 
L 309.019835 238.375076 
L 312.094215 240.600651 
L 315.168595 242.471588 
L 318.242975 244.04167 
L 321.317355 245.357367 
L 324.391736 246.458566 
L 327.466116 247.379308 
L 330.540496 248.148523 
L 333.614876 248.790697 
L 336.689256 249.326502 
L 339.763636 249.77334 
L 342.838017 250.145834 
L 345.912397 250.456248 
L 348.986777 250.714858 
L 352.061157 250.930257 
L 355.135537 251.109632 
L 358.209917 251.258983 
L 361.284298 251.38332 
L 364.358678 251.48682 
L 367.433058 251.572967 
L 370.507438 251.644665 
L 373.581818 251.704333 
" clip-path="url(#p2c6a679d49)" style="fill: none; stroke: #000000; stroke-width: 1.5; stroke-linecap: square"/>
   </g>
   <g id="patch_23">
    <path d="M 54 252 
L 54 34.56 
" style="fill: none; stroke: #000000; stroke-width: 0.8; stroke-linejoin: miter; stroke-linecap: square"/>
   </g>
   <g id="patch_24">
    <path d="M 388.8 252 
L 388.8 34.56 
" style="fill: none; stroke: #000000; stroke-width: 0.8; stroke-linejoin: miter; stroke-linecap: square"/>
   </g>
   <g id="patch_25">
    <path d="M 54 252 
L 388.8 252 
" style="fill: none; stroke: #000000; stroke-width: 0.8; stroke-linejoin: miter; stroke-linecap: square"/>
   </g>
   <g id="patch_26">
    <path d="M 54 34.56 
L 388.8 34.56 
" style="fill: none; stroke: #000000; stroke-width: 0.8; stroke-linejoin: miter; stroke-linecap: square"/>
   </g>
   <g id="legend_1">
    <g id="patch_27">
     <path d="M 61 71.349063 
L 168 71.349063 
Q 170 71.349063 170 69.349063 
L 170 41.56 
Q 170 39.56 168 39.56 
L 61 39.56 
Q 59 39.56 59 41.56 
L 59 69.349063 
Q 59 71.349063 61 71.349063 
z
" style="fill: #ffffff; opacity: 0.8; stroke: #cccccc; stroke-linejoin: miter"/>
    </g>
    <g id="patch_28">
     <path d="M 63 51.567813 
L 83 51.567813 
L 83 44.567813 
L 63 44.567813 
z
" style="fill: url(#hea32e06cbd); stroke: #000000; stroke-linejoin: miter"/>
    </g>
    <g id="text_17">
     <!-- 概率分布直方图 -->
     <g transform="translate(91 51.567813)scale(0.1 -0.1)">
      <defs>
       <path id="SimSun-6982" d="M 2700 4500 
L 2700 3450 
L 3375 3450 
L 3375 4500 
L 2700 4500 
z
M 2700 3300 
L 2700 2300 
L 3375 2300 
L 3375 3300 
L 2700 3300 
z
M 2700 725 
L 3425 1200 
Q 3350 1375 3025 1775 
L 3050 1850 
Q 3550 1525 3712 1337 
Q 3875 1150 3875 1000 
Q 3875 875 3800 750 
Q 3725 625 3700 625 
Q 3650 625 3625 725 
Q 3550 900 3475 1100 
Q 2900 600 2575 150 
L 2325 475 
Q 2400 625 2400 950 
L 2400 3475 
Q 2400 3975 2375 4825 
L 2700 4650 
L 3350 4650 
L 3550 4850 
L 3875 4525 
L 3650 4400 
Q 3650 2825 3675 2150 
L 3375 1975 
L 3375 2150 
L 2700 2150 
L 2700 725 
z
M 5025 2400 
L 4950 2075 
L 5350 1850 
L 5175 1675 
L 5175 100 
Q 5175 -125 5350 -125 
L 5525 -125 
Q 5750 -125 5762 162 
Q 5775 450 5775 825 
L 5900 825 
Q 5900 450 5962 225 
Q 6025 0 6150 -75 
Q 6075 -250 5950 -325 
Q 5825 -400 5625 -400 
L 5225 -400 
Q 4875 -400 4875 0 
L 4875 1825 
Q 4350 75 2650 -650 
L 2625 -575 
Q 4275 350 4700 2400 
L 4225 2400 
L 4050 2250 
L 3775 2550 
Q 3925 2625 4012 2975 
Q 4100 3325 4225 4075 
L 4600 3850 
Q 4475 3800 4425 3575 
Q 4375 3325 4200 2550 
L 4725 2550 
Q 4800 3100 4850 4500 
L 4425 4500 
L 4200 4450 
L 4000 4650 
L 5400 4650 
L 5650 4900 
L 6050 4500 
L 5175 4500 
Q 5100 3100 5050 2550 
L 5400 2550 
L 5675 2825 
L 6100 2400 
L 5025 2400 
z
M 1550 775 
Q 1550 425 1575 -450 
L 1225 -625 
Q 1250 850 1250 2400 
Q 925 1525 300 750 
L 250 825 
Q 575 1400 825 2062 
Q 1075 2725 1225 3575 
L 775 3575 
L 550 3525 
L 350 3725 
L 1250 3725 
Q 1250 4400 1225 5275 
L 1750 5000 
L 1550 4850 
L 1550 3725 
L 1675 3725 
L 1925 3975 
L 2325 3575 
L 1550 3575 
L 1550 3000 
Q 2025 2800 2175 2650 
Q 2325 2500 2325 2350 
Q 2325 2250 2262 2100 
Q 2200 1950 2175 1950 
Q 2100 1950 2000 2200 
Q 1850 2550 1550 2850 
L 1550 775 
z
" transform="scale(0.015625)"/>
       <path id="SimSun-7387" d="M 875 3725 
L 925 3800 
Q 1375 3650 1550 3525 
Q 1725 3400 1725 3250 
Q 1725 3175 1662 3025 
Q 1600 2875 1550 2875 
Q 1500 2875 1425 3050 
Q 1275 3325 875 3725 
z
M 550 1850 
Q 875 1925 2000 2575 
L 2050 2500 
Q 1675 2225 1337 1937 
Q 1000 1650 875 1425 
L 550 1850 
z
M 5200 3450 
Q 4800 3150 4275 2800 
L 4225 2875 
Q 4775 3400 5050 3925 
L 5450 3525 
L 5200 3450 
z
M 4325 2500 
L 4350 2575 
Q 5225 2350 5375 2212 
Q 5525 2075 5525 1900 
Q 5525 1775 5487 1662 
Q 5450 1550 5400 1550 
Q 5325 1550 5200 1800 
Q 4975 2150 4325 2500 
z
M 3150 3900 
Q 2500 3300 2300 3150 
Q 2800 3150 3400 3175 
Q 3700 3500 3850 3825 
L 4250 3450 
Q 4050 3400 3450 2825 
Q 2850 2250 2475 1950 
Q 3150 1975 3850 2000 
Q 3750 2175 3550 2450 
L 3600 2500 
Q 4050 2250 4200 2100 
Q 4350 1950 4350 1850 
Q 4350 1775 4250 1625 
Q 4150 1475 4100 1475 
Q 4075 1475 4050 1550 
Q 4000 1700 3900 1900 
Q 3650 1875 3075 1800 
L 3500 1550 
L 3325 1425 
L 3325 975 
L 5325 975 
L 5650 1300 
L 6100 825 
L 3325 825 
Q 3325 -275 3350 -525 
L 2975 -650 
Q 3000 0 3000 825 
L 1125 825 
Q 800 825 525 750 
L 300 975 
L 3000 975 
L 3000 1775 
Q 2450 1700 2200 1525 
L 1950 1950 
Q 2275 1950 2675 2350 
Q 3075 2750 3325 3050 
Q 2400 2950 2150 2775 
L 1950 3175 
Q 2150 3150 2475 3575 
Q 2800 4000 2900 4225 
L 1450 4225 
Q 1125 4225 850 4150 
L 625 4375 
L 3100 4375 
Q 3050 4800 2675 5200 
L 2725 5250 
Q 3225 5050 3337 4912 
Q 3450 4775 3450 4700 
Q 3450 4550 3250 4375 
L 5025 4375 
L 5350 4675 
L 5775 4225 
L 3050 4225 
L 3375 3950 
L 3150 3900 
z
" transform="scale(0.015625)"/>
       <path id="SimSun-5206" d="M 2350 5050 
L 2850 4675 
L 2625 4550 
Q 2200 3750 1687 3125 
Q 1175 2500 375 2025 
L 325 2100 
Q 975 2625 1475 3337 
Q 1975 4050 2350 5050 
z
M 4100 4975 
L 3900 4850 
Q 4175 3850 4800 3300 
Q 5425 2750 6125 2625 
L 6125 2550 
Q 5750 2500 5600 2225 
Q 4775 2675 4287 3425 
Q 3800 4175 3625 5175 
L 4100 4975 
z
M 1375 2625 
L 4225 2625 
L 4475 2875 
L 4825 2525 
L 4625 2375 
Q 4575 400 4375 -12 
Q 4175 -425 3675 -600 
Q 3600 -200 2975 -25 
L 2975 75 
Q 3600 -25 3787 -12 
Q 3975 0 4075 275 
Q 4175 550 4275 2475 
L 2975 2475 
Q 2825 1400 2375 662 
Q 1925 -75 650 -625 
L 600 -525 
Q 1725 50 2112 837 
Q 2500 1625 2575 2475 
L 1800 2475 
L 1575 2425 
L 1375 2625 
z
" transform="scale(0.015625)"/>
       <path id="SimSun-5e03" d="M 3425 2725 
Q 3425 3225 3400 3625 
L 3975 3375 
L 3775 3200 
L 3775 2725 
L 4950 2725 
L 5150 2975 
L 5575 2650 
L 5350 2500 
L 5350 500 
Q 5300 100 4800 -50 
Q 4800 225 4175 475 
L 4175 575 
Q 4625 500 4812 500 
Q 5000 500 5000 700 
L 5000 2575 
L 3775 2575 
L 3775 550 
Q 3775 -25 3800 -500 
L 3400 -675 
Q 3425 250 3425 1025 
L 3425 2575 
L 2275 2575 
L 2275 125 
L 1900 -25 
Q 1925 775 1925 2525 
Q 1225 1650 300 1025 
L 250 1100 
Q 1300 2050 1762 2800 
Q 2225 3550 2375 3875 
L 825 3875 
L 600 3825 
L 400 4025 
L 2425 4025 
Q 2750 4725 2850 5225 
L 3450 4850 
L 3200 4725 
L 2825 4025 
L 5175 4025 
L 5550 4400 
L 6075 3875 
L 2775 3875 
Q 2500 3350 2175 2850 
L 2250 2725 
L 3425 2725 
z
" transform="scale(0.015625)"/>
       <path id="SimSun-76f4" d="M 1900 3425 
L 1900 2725 
L 4500 2725 
L 4500 3425 
L 1900 3425 
z
M 1900 2575 
L 1900 1825 
L 4500 1825 
L 4500 2575 
L 1900 2575 
z
M 1900 1675 
L 1900 900 
L 4500 900 
L 4500 1675 
L 1900 1675 
z
M 1900 750 
L 1900 -50 
L 4500 -50 
L 4500 750 
L 1900 750 
z
M 625 4375 
L 3000 4375 
Q 3050 4875 3075 5225 
L 3650 4925 
L 3425 4800 
L 3350 4375 
L 4975 4375 
L 5325 4750 
L 5775 4225 
L 3325 4225 
L 3200 3575 
L 4475 3575 
L 4650 3850 
L 5050 3550 
L 4850 3375 
L 4850 -50 
L 5225 -50 
L 5625 325 
L 6100 -200 
L 1100 -200 
Q 775 -175 500 -250 
L 300 -50 
L 1550 -50 
Q 1550 3150 1525 3825 
L 1900 3575 
L 2875 3575 
L 2975 4225 
L 1450 4225 
Q 1125 4225 850 4150 
L 625 4375 
z
" transform="scale(0.015625)"/>
       <path id="SimSun-65b9" d="M 275 3925 
L 5250 3925 
L 5625 4300 
L 6150 3775 
L 3075 3775 
Q 3050 3300 2950 2675 
L 4575 2675 
L 4825 2925 
L 5225 2550 
L 4975 2400 
Q 4725 475 4625 125 
Q 4525 -225 4312 -362 
Q 4100 -500 3725 -600 
Q 3625 -200 2900 100 
L 2925 200 
Q 3600 0 3812 -12 
Q 4025 -25 4137 75 
Q 4250 175 4350 712 
Q 4450 1250 4600 2525 
L 2925 2525 
Q 2500 350 475 -575 
L 425 -475 
Q 2675 800 2675 3775 
L 1100 3775 
Q 775 3775 500 3700 
L 275 3925 
z
M 2675 5150 
Q 3325 4900 3437 4725 
Q 3550 4550 3550 4450 
Q 3550 4350 3450 4212 
Q 3350 4075 3325 4075 
Q 3225 4075 3125 4350 
Q 2975 4725 2625 5075 
L 2675 5150 
z
" transform="scale(0.015625)"/>
       <path id="SimSun-56fe" d="M 5675 4700 
L 5675 550 
Q 5675 50 5700 -350 
L 5325 -550 
L 5325 -50 
L 1250 -50 
L 1250 -450 
L 875 -600 
Q 900 -100 900 425 
L 900 4200 
Q 900 4625 875 5150 
L 1250 4925 
L 5275 4925 
L 5450 5175 
L 5850 4850 
L 5675 4700 
z
M 1250 4775 
L 1250 1700 
Q 2425 2200 3075 2825 
Q 2750 3275 2500 3850 
Q 2100 3225 1650 2800 
L 1575 2850 
Q 1975 3375 2250 3937 
Q 2525 4500 2575 4775 
L 1250 4775 
z
M 1250 100 
L 5325 100 
L 5325 4775 
L 2625 4775 
L 3050 4550 
L 2900 4475 
Q 2750 4250 2675 4125 
L 4000 4125 
L 4175 4350 
L 4550 4000 
L 4350 3875 
Q 3925 3275 3475 2775 
Q 4250 2200 5250 2100 
L 5250 2000 
Q 4875 1975 4775 1700 
Q 3900 2025 3250 2600 
Q 2375 1900 1250 1575 
L 1250 100 
z
M 2600 3975 
Q 2950 3350 3275 3000 
Q 3625 3400 3975 3975 
L 2600 3975 
z
M 2750 2050 
Q 3350 1925 3600 1825 
Q 3850 1725 3825 1487 
Q 3800 1250 3725 1250 
Q 3650 1250 3550 1375 
Q 3300 1625 2725 1975 
L 2750 2050 
z
M 2275 1150 
Q 3425 1025 3787 912 
Q 4150 800 4175 525 
Q 4200 250 4075 250 
Q 4000 250 3825 400 
Q 3450 700 2275 1050 
L 2275 1150 
z
" transform="scale(0.015625)"/>
      </defs>
      <use xlink:href="#SimSun-6982"/>
      <use xlink:href="#SimSun-7387" x="100"/>
      <use xlink:href="#SimSun-5206" x="200"/>
      <use xlink:href="#SimSun-5e03" x="300"/>
      <use xlink:href="#SimSun-76f4" x="400"/>
      <use xlink:href="#SimSun-65b9" x="500"/>
      <use xlink:href="#SimSun-56fe" x="600"/>
     </g>
    </g>
    <g id="line2d_17">
     <path d="M 63 62.520938 
L 73 62.520938 
L 83 62.520938 
" style="fill: none; stroke: #000000; stroke-width: 1.5; stroke-linecap: square"/>
    </g>
    <g id="text_18">
     <!-- logitic拟合分布 -->
     <g transform="translate(91 66.020938)scale(0.1 -0.1)">
      <defs>
       <path id="SimSun-6f" d="M 2900 1500 
Q 2900 875 2525 462 
Q 2150 50 1600 50 
Q 1025 50 662 475 
Q 300 900 300 1500 
Q 300 2050 662 2500 
Q 1025 2950 1600 2950 
Q 2200 2950 2550 2500 
Q 2900 2050 2900 1500 
z
M 700 1475 
Q 700 825 962 512 
Q 1225 200 1600 200 
Q 2025 200 2262 537 
Q 2500 875 2500 1475 
Q 2500 2125 2237 2462 
Q 1975 2800 1600 2800 
Q 1250 2800 975 2462 
Q 700 2125 700 1475 
z
" transform="scale(0.015625)"/>
       <path id="SimSun-67" d="M 875 1975 
Q 875 1675 1050 1462 
Q 1225 1250 1525 1250 
Q 1850 1250 2012 1437 
Q 2175 1625 2175 1975 
Q 2175 2400 1987 2587 
Q 1800 2775 1525 2775 
Q 1250 2775 1062 2587 
Q 875 2400 875 1975 
z
M 2100 625 
Q 2475 575 2650 412 
Q 2825 250 2825 -25 
Q 2825 -400 2512 -625 
Q 2200 -850 1525 -850 
Q 1000 -850 675 -637 
Q 350 -425 350 -150 
Q 350 25 475 200 
Q 600 375 875 475 
Q 725 550 637 637 
Q 550 725 550 850 
Q 550 1000 650 1112 
Q 750 1225 900 1300 
Q 750 1425 637 1600 
Q 525 1775 525 1975 
Q 525 2350 787 2637 
Q 1050 2925 1525 2925 
Q 1725 2925 1912 2875 
Q 2100 2825 2225 2700 
Q 2400 2825 2537 2887 
Q 2675 2950 2775 2950 
Q 2900 2950 2950 2862 
Q 3000 2775 3000 2700 
Q 3000 2600 2962 2537 
Q 2925 2475 2825 2475 
Q 2750 2475 2700 2512 
Q 2650 2550 2625 2625 
Q 2600 2700 2512 2687 
Q 2425 2675 2325 2600 
Q 2425 2500 2475 2325 
Q 2525 2150 2525 1975 
Q 2525 1675 2287 1387 
Q 2050 1100 1525 1100 
Q 1375 1100 1250 1137 
Q 1125 1175 1050 1225 
Q 950 1175 900 1100 
Q 850 1025 850 975 
Q 850 875 900 825 
Q 950 775 1050 775 
Q 1375 725 1637 687 
Q 1900 650 2100 625 
z
M 1075 425 
Q 850 325 762 187 
Q 675 50 675 -150 
Q 675 -350 900 -525 
Q 1125 -700 1575 -700 
Q 2000 -700 2250 -562 
Q 2500 -425 2500 -150 
Q 2500 25 2437 125 
Q 2375 225 2250 250 
Q 2000 300 1700 350 
Q 1400 375 1075 425 
z
" transform="scale(0.015625)"/>
       <path id="SimSun-62df" d="M 3150 1050 
L 4250 1900 
L 4325 1825 
Q 4000 1500 3625 1087 
Q 3250 675 3050 300 
L 2675 675 
Q 2800 800 2800 1125 
L 2800 3125 
Q 2800 3850 2775 4650 
L 3375 4350 
L 3150 4175 
L 3150 1050 
z
M 5050 1175 
Q 5725 700 5887 450 
Q 6050 200 6000 -12 
Q 5950 -225 5850 -325 
Q 5750 -425 5625 25 
Q 5475 475 5000 1025 
Q 4375 -225 2625 -675 
L 2600 -575 
Q 3250 -300 3712 37 
Q 4175 375 4500 912 
Q 4825 1450 4850 2400 
Q 4875 3350 4875 3750 
Q 4875 4525 4825 5000 
L 5500 4675 
L 5250 4475 
Q 5250 3650 5237 2775 
Q 5225 1900 5050 1175 
z
M 1375 3850 
Q 1375 4875 1350 5225 
L 1925 4950 
L 1725 4750 
L 1725 3850 
L 2050 3850 
L 2325 4125 
L 2750 3700 
L 1725 3700 
L 1725 2525 
L 2575 2975 
L 2625 2875 
L 1725 2275 
L 1725 100 
Q 1700 -350 1175 -550 
Q 1200 -275 450 0 
L 450 100 
Q 1000 0 1200 12 
Q 1400 25 1375 350 
L 1375 2050 
Q 675 1600 600 1425 
L 250 1875 
Q 550 1950 1375 2375 
L 1375 3700 
L 775 3700 
L 450 3650 
L 250 3850 
L 1375 3850 
z
M 3575 4775 
Q 4050 4375 4200 4150 
Q 4350 3925 4350 3775 
Q 4350 3700 4312 3587 
Q 4275 3475 4200 3412 
Q 4125 3350 4100 3350 
Q 4000 3350 3950 3700 
Q 3850 4125 3500 4725 
L 3575 4775 
z
" transform="scale(0.015625)"/>
       <path id="SimSun-5408" d="M 3575 4875 
L 3350 4750 
Q 3650 4225 4312 3662 
Q 4975 3100 6125 2825 
L 6125 2750 
Q 5750 2675 5600 2400 
Q 4500 3000 3962 3612 
Q 3425 4225 3250 4625 
Q 2575 3600 1887 3075 
Q 1200 2550 300 2225 
L 275 2325 
Q 1250 2825 1937 3500 
Q 2625 4175 3050 5225 
L 3575 4875 
z
M 1525 2700 
L 4025 2700 
L 4350 3025 
L 4825 2550 
L 2300 2550 
Q 2025 2550 1750 2475 
L 1525 2700 
z
M 1975 1500 
L 1975 100 
L 4375 100 
L 4375 1500 
L 1975 1500 
z
M 4725 1375 
Q 4725 250 4750 -325 
L 4375 -475 
L 4375 -50 
L 1975 -50 
L 1975 -375 
L 1600 -525 
Q 1625 100 1625 675 
Q 1625 1250 1600 1850 
L 1975 1650 
L 4325 1650 
L 4575 1900 
L 4925 1550 
L 4725 1375 
z
" transform="scale(0.015625)"/>
      </defs>
      <use xlink:href="#SimSun-6c"/>
      <use xlink:href="#SimSun-6f" x="50"/>
      <use xlink:href="#SimSun-67" x="100"/>
      <use xlink:href="#SimSun-69" x="150"/>
      <use xlink:href="#SimSun-74" x="200"/>
      <use xlink:href="#SimSun-69" x="250"/>
      <use xlink:href="#SimSun-63" x="300"/>
      <use xlink:href="#SimSun-62df" x="350"/>
      <use xlink:href="#SimSun-5408" x="450"/>
      <use xlink:href="#SimSun-5206" x="550"/>
      <use xlink:href="#SimSun-5e03" x="650"/>
     </g>
    </g>
   </g>
  </g>
 </g>
 <defs>
  <clipPath id="p2c6a679d49">
   <rect x="54" y="34.56" width="334.8" height="217.44"/>
  </clipPath>
 </defs>
 <defs>
  <pattern id="hea32e06cbd" patternUnits="userSpaceOnUse" x="0" y="0" width="72" height="72">
   <rect x="0" y="0" width="73" height="73" fill="#ffffff"/>
   <path d="M -36 36 
L 36 -36 
M -30 42 
L 42 -30 
M -24 48 
L 48 -24 
M -18 54 
L 54 -18 
M -12 60 
L 60 -12 
M -6 66 
L 66 -6 
M 0 72 
L 72 0 
M 6 78 
L 78 6 
M 12 84 
L 84 12 
M 18 90 
L 90 18 
M 24 96 
L 96 24 
M 30 102 
L 102 30 
M 36 108 
L 108 36 
" style="fill: #000000; stroke: #000000; stroke-width: 1.0; stroke-linecap: butt; stroke-linejoin: miter"/>
  </pattern>
 </defs>
</svg>
